<svg xmlns="http://www.w3.org/2000/svg" width="188" height="39" viewBox="0 0 147.585 23.001">
  <defs>
    <style>
      .cls-1 {
        fill: #4a4a4a;
      }

      .cls-2 {
        fill: #d12b28;
      }

      .cls-3 {
        fill: #fff;
      }

      .cls-4 {
        fill: #5d5d5d;
      }
    </style>
  </defs>
  <g id="Group_10016" data-name="Group 10016" transform="translate(-1458.386 -2003.011)">
    <g id="Group_10011" data-name="Group 10011" transform="translate(1488.39 2006.512)">
      <g id="Group_10009" data-name="Group 10009">
        <path id="Path_50541" data-name="Path 50541" class="cls-1" d="M2137.511,2087.805h-1.367v7.027h-2.1v-15.549h2.1v6.878h1.154l5.767-6.878h2.371l.021.053-6.3,7.358,6.75,8.084-.021.053h-2.553Z" transform="translate(-2134.04 -2079.059)"/>
        <path id="Path_50542" data-name="Path 50542" class="cls-1" d="M2420.8,2093.188h7.583v1.645H2418.7v-15.549h2.1Z" transform="translate(-2404.792 -2079.059)"/>
        <path id="Path_50543" data-name="Path 50543" class="cls-1" d="M2650.687,2084.079a6.634,6.634,0,0,1-1.768,4.731,6.011,6.011,0,0,1-4.587,1.88,5.7,5.7,0,0,1-4.427-1.88,6.777,6.777,0,0,1-1.7-4.731v-2.766a6.8,6.8,0,0,1,1.7-4.731,5.681,5.681,0,0,1,4.427-1.89,6,6,0,0,1,4.587,1.885,6.655,6.655,0,0,1,1.768,4.737Zm-2.1-2.787a5.248,5.248,0,0,0-1.153-3.5,3.846,3.846,0,0,0-3.1-1.367,3.563,3.563,0,0,0-2.932,1.367,5.429,5.429,0,0,0-1.095,3.5v2.787a5.462,5.462,0,0,0,1.095,3.524,3.562,3.562,0,0,0,2.932,1.367,3.847,3.847,0,0,0,3.1-1.362,5.287,5.287,0,0,0,1.148-3.53Z" transform="translate(-2613.575 -2074.692)"/>
        <path id="Path_50544" data-name="Path 50544" class="cls-1" d="M2962.559,2079.283v10.327a5.014,5.014,0,0,1-1.666,4,6.325,6.325,0,0,1-4.293,1.442,5.97,5.97,0,0,1-4.144-1.447,5.1,5.1,0,0,1-1.613-4v-10.327h2.1v10.327a3.752,3.752,0,0,0,1.02,2.793,3.583,3.583,0,0,0,2.633,1.009,3.9,3.9,0,0,0,2.782-1.009,3.647,3.647,0,0,0,1.073-2.793v-10.327Z" transform="translate(-2910.945 -2079.059)"/>
        <path id="Path_50545" data-name="Path 50545" class="cls-1" d="M3258.894,2094.832v-15.549h4.891a6.4,6.4,0,0,1,6.75,6.717v2.125a6.379,6.379,0,0,1-6.75,6.707Zm2.1-13.894v12.249h2.787a4.289,4.289,0,0,0,3.4-1.42,5.326,5.326,0,0,0,1.244-3.642v-2.147a5.294,5.294,0,0,0-1.244-3.62,4.289,4.289,0,0,0-3.4-1.421Z" transform="translate(-3203.948 -2079.059)"/>
      </g>
      <g id="Group_10010" data-name="Group 10010" transform="translate(69.759)">
        <path id="Path_50546" data-name="Path 50546" class="cls-2" d="M3570.625,2087.624h-6.386v5.564h7.476v1.645h-9.58v-15.549h9.462v1.655h-7.358v5.03h6.386Z" transform="translate(-3562.134 -2079.059)"/>
        <path id="Path_50547" data-name="Path 50547" class="cls-2" d="M3790.807,2090.828h-5.853l-1.388,4h-2.146l5.607-15.549h1.8l5.489,15.549h-2.146Zm-5.244-1.762h4.646l-2.264-6.675h-.064Z" transform="translate(-3770.708 -2079.059)"/>
        <path id="Path_50548" data-name="Path 50548" class="cls-2" d="M4047.323,2080.938H4042.2v13.894h-2.1v-13.894h-5.062v-1.655h12.292Z" transform="translate(-4011.931 -2079.059)"/>
        <path id="Path_50549" data-name="Path 50549" class="cls-2" d="M4325.043,2086.546a2.34,2.34,0,0,0-.758-1.773,6.319,6.319,0,0,0-2.67-1.218,8.889,8.889,0,0,1-3.7-1.73,3.629,3.629,0,0,1-1.329-2.873,3.833,3.833,0,0,1,1.431-3.044,5.539,5.539,0,0,1,3.717-1.217,5.429,5.429,0,0,1,3.914,1.394,4.222,4.222,0,0,1,1.415,3.252l-.032.064h-2.008a2.871,2.871,0,0,0-.924-2.189,3.323,3.323,0,0,0-2.365-.865,3.24,3.24,0,0,0-2.259.716,2.4,2.4,0,0,0-.785,1.858,2.076,2.076,0,0,0,.859,1.693,7.928,7.928,0,0,0,2.793,1.191,7.929,7.929,0,0,1,3.578,1.794,3.906,3.906,0,0,1,1.228,2.926,3.632,3.632,0,0,1-1.479,3.022,6.139,6.139,0,0,1-3.861,1.143,6.563,6.563,0,0,1-3.978-1.26,3.84,3.84,0,0,1-1.671-3.375l.021-.064h2.008a2.614,2.614,0,0,0,1.11,2.259,4.2,4.2,0,0,0,2.51.8,3.777,3.777,0,0,0,2.366-.673A2.186,2.186,0,0,0,4325.043,2086.546Z" transform="translate(-4279.324 -2074.692)"/>
      </g>
    </g>
    <g id="Group_10015" data-name="Group 10015" transform="translate(1458.386 2003.011)">
      <path id="Path_50550" data-name="Path 50550" class="cls-3" d="M1483.7,2036.7l-5.512,2.11-3.529,1.969v14.631h21.1v-12.8l-8.054-5.346Z" transform="translate(-1473.865 -2035.05)"/>
      <g id="Group_10012" data-name="Group 10012" transform="translate(8.481 10.932)">
        <path id="Path_50551" data-name="Path 50551" class="cls-4" d="M1632.874,2226.833a.677.677,0,1,0,.451.845A.677.677,0,0,0,1632.874,2226.833Z" transform="translate(-1632 -2226.803)"/>
        <path id="Path_50552" data-name="Path 50552" class="cls-4" d="M1644.308,2232.349a.224.224,0,1,1-.149-.279A.223.223,0,0,1,1644.308,2232.349Z" transform="translate(-1643.291 -2231.803)"/>
      </g>
      <g id="Group_10013" data-name="Group 10013" transform="translate(13.039 10.932)">
        <path id="Path_50553" data-name="Path 50553" class="cls-4" d="M1726.2,2226.833a.677.677,0,1,0,.451.845A.677.677,0,0,0,1726.2,2226.833Z" transform="translate(-1725.323 -2226.803)"/>
        <path id="Path_50554" data-name="Path 50554" class="cls-4" d="M1737.632,2232.349a.224.224,0,1,1-.149-.279A.223.223,0,0,1,1737.632,2232.349Z" transform="translate(-1736.615 -2231.803)"/>
      </g>
      <g id="Group_10014" data-name="Group 10014" transform="translate(6.188 13.504)">
        <path id="Path_50555" data-name="Path 50555" class="cls-4" d="M1585.064,2279.468c.189.159.377.32.569.474.1.077.192.154.291.225l.149.108.074.054.076.051a7.877,7.877,0,0,0,2.656,1.153,7.675,7.675,0,0,0,1.433.186,7.442,7.442,0,0,0,1.441-.09c.06-.007.119-.021.178-.032l.178-.034c.059-.012.118-.027.177-.041l.177-.042.175-.049.088-.024.044-.012.043-.014.173-.056.086-.028c.029-.009.057-.021.086-.031a8.281,8.281,0,0,0,2.521-1.468,6.457,6.457,0,0,1-1.115.985,7.045,7.045,0,0,1-1.314.721,6.964,6.964,0,0,1-2.949.543,7.21,7.21,0,0,1-1.495-.212,7.109,7.109,0,0,1-1.412-.522,6.928,6.928,0,0,1-1.266-.8l-.073-.058-.071-.061-.141-.123c-.094-.082-.183-.169-.271-.256C1585.4,2279.834,1585.23,2279.652,1585.064,2279.468Z" transform="translate(-1585.064 -2279.468)"/>
      </g>
      <path id="Path_50556" data-name="Path 50556" class="cls-2" d="M1475.808,2003.011h-15.324a2.1,2.1,0,0,0-1.845,1.1c-.016.03-.032.06-.046.09-.03.061-.056.124-.08.188a2.086,2.086,0,0,0-.116.507c-.007.071-.011.142-.011.214v18.805a2.1,2.1,0,0,0,2.1,2.1h18.805a2.1,2.1,0,0,0,2.1-2.1V2008.59A5.579,5.579,0,0,1,1475.808,2003.011Zm3.622,14.191a4.349,4.349,0,0,1-4.349,4.322h-10.39a4.349,4.349,0,0,1-4.349-4.322,4.294,4.294,0,0,1,4.294-4.267h.006c0-.037-.006-.073-.006-.111a5.251,5.251,0,1,1,10.5,0c0,.037,0,.073-.006.111h.006A4.294,4.294,0,0,1,1479.43,2017.2Z" transform="translate(-1458.386 -2003.011)"/>
    </g>
  </g>
</svg>
