<?xml version="1.0" encoding="utf-8"?>
<!-- Generator: Adobe Illustrator 25.0.0, SVG Export Plug-In . SVG Version: 6.00 Build 0)  -->
<svg version="1.1" id="Layer_1" xmlns="http://www.w3.org/2000/svg" xmlns:xlink="http://www.w3.org/1999/xlink" x="0px" y="0px"
	 viewBox="0 0 2000 500" style="enable-background:new 0 0 2000 500;" xml:space="preserve">
<style type="text/css">
	.st0{fill:#FFFFFF;}
	.st1{fill:#DC4238;}
	.st2{fill:#4A4A4A;}
</style>
<g>
	<g>
		<g>
			<path class="st0" d="M462.5,273.05h-20.13v131.86H401.5V111.8h40.87v128.44h17.31l81.73-128.44h49.52l-96.63,137.7l104.08,155.42
				h-51.94L462.5,273.05z"/>
			<path class="st0" d="M668.24,404.91h-41.07V90.86h41.07V404.91z"/>
			<path class="st0" d="M709.92,293.58c0-32.34,7.65-58.85,22.95-79.52c15.3-20.67,36.3-31,63.01-31c26.71,0,47.74,10.34,63.11,31
				c15.37,20.67,23.05,47.18,23.05,79.52v5.44c0,32.48-7.65,58.95-22.95,79.42c-15.3,20.47-36.24,30.7-62.81,30.7
				c-26.98,0-48.11-10.23-63.41-30.7c-15.3-20.46-22.95-46.94-22.95-79.42V293.58z M750.98,299.02c0,23.22,3.72,42.21,11.17,56.97
				c7.45,14.77,18.82,22.15,34.12,22.15c14.9,0,26.07-7.41,33.52-22.25c7.45-14.83,11.17-33.79,11.17-56.87v-5.44
				c0-22.81-3.76-41.7-11.27-56.67c-7.52-14.96-18.79-22.45-33.82-22.45c-15.03,0-26.27,7.48-33.72,22.45
				c-7.45,14.97-11.17,33.86-11.17,56.67V299.02z"/>
			<path class="st0" d="M1038.26,373.1c-5.91,11.54-13.42,20.43-22.55,26.67c-9.13,6.24-19.73,9.36-31.81,9.36
				c-20,0-35.63-7.72-46.91-23.15c-11.27-15.43-16.91-39.39-16.91-71.87V187.09h41.07v127.43c0,23.35,2.68,39.69,8.05,49.02
				c5.37,9.33,13.55,13.99,24.56,13.99c10.07,0,18.62-2.35,25.67-7.05c7.05-4.7,12.58-11.41,16.61-20.13V187.09h41.07v217.82h-34.83
				L1038.26,373.1z"/>
			<path class="st0" d="M1116.37,298.62c0-34.89,6.37-62.88,19.12-83.95c12.75-21.07,30.67-31.61,53.75-31.61
				c10.33,0,19.59,2.32,27.78,6.95c8.18,4.63,15.23,11.31,21.14,20.03V90.86h40.87v314.05h-33.82l-4.23-26.17
				c-6.04,9.93-13.42,17.48-22.14,22.65c-8.73,5.17-18.72,7.75-30,7.75c-22.95,0-40.77-9.69-53.45-29.09
				c-12.68-19.39-19.02-45.13-19.02-77.2V298.62z M1157.04,302.85c0,22.82,3.42,40.97,10.27,54.46
				c6.84,13.49,17.51,20.23,32.01,20.23c9.12,0,16.88-2.42,23.25-7.25c6.37-4.83,11.58-11.68,15.6-20.53V244.26
				c-4.03-8.99-9.26-16.14-15.7-21.44c-6.44-5.3-14.09-7.95-22.95-7.95c-14.49,0-25.2,7.75-32.11,23.25
				c-6.91,15.5-10.37,35.67-10.37,60.5V302.85z"/>
		</g>
		<g>
			<g>
				<path class="st1" d="M1471.69,268.82h-99.45v105.09h117.17v31h-158.03V111.8h157.03v31.4h-116.16v94.42h99.45V268.82z"/>
				<path class="st1" d="M1639.19,404.91c-1.75-6.57-3.12-12.45-4.13-17.62c-1.01-5.17-1.64-10.3-1.91-15.4
					c-5.77,10.74-13.39,19.63-22.85,26.67c-9.46,7.05-20.23,10.57-32.31,10.57c-19.46,0-34.39-5.77-44.79-17.31
					c-10.4-11.54-15.6-27.31-15.6-47.31c0-20.53,7.21-36.71,21.64-48.52c14.42-11.81,34.53-17.72,60.29-17.72h33.42v-22.35
					c0-13.29-2.95-23.65-8.86-31.1c-5.91-7.45-14.36-11.17-25.37-11.17c-9.93,0-17.82,3.22-23.65,9.66
					c-5.84,6.44-8.76,14.7-8.76,24.76l-39.05,0.2l-0.4-1.21c-0.81-16.91,5.77-31.81,19.73-44.69
					c13.96-12.88,32.21-19.33,54.76-19.33c21.61,0,39.12,6.34,52.54,19.02c13.42,12.68,20.13,30.77,20.13,54.25V357.4
					c0,8.32,0.53,16.41,1.61,24.26c1.07,7.85,2.75,15.6,5.03,23.25H1639.19z M1586.44,377.73c11.14,0,21-3.45,29.59-10.37
					c8.59-6.91,14.22-15.27,16.91-25.06v-38.65h-34.02c-12.62,0-22.48,4-29.59,11.98c-7.12,7.99-10.67,17.62-10.67,28.89
					c0,10.07,2.42,18.12,7.25,24.16C1570.74,374.71,1577.58,377.73,1586.44,377.73z"/>
				<path class="st1" d="M1773.26,132.94v54.15h34.02v29.19h-34.02v129.65c0,11.27,1.71,19.29,5.13,24.06
					c3.42,4.76,7.95,7.15,13.59,7.15c2.28,0,4.43-0.2,6.44-0.6c2.01-0.4,4.36-1.01,7.05-1.81l4.23,28.18
					c-3.89,1.88-8.22,3.39-12.99,4.53c-4.76,1.14-9.7,1.71-14.8,1.71c-15.7,0-27.92-5.06-36.64-15.2
					c-8.73-10.13-13.09-26.14-13.09-48.01V216.28h-28.79v-29.19h28.79v-54.15H1773.26z"/>
				<path class="st1" d="M1947.6,349.95c0-8.46-2.82-15.53-8.46-21.24c-5.64-5.7-16.44-12.11-32.41-19.23
					c-22.42-8.46-39.19-17.65-50.33-27.58c-11.14-9.93-16.71-22.68-16.71-38.25c0-16.77,6.74-31.07,20.23-42.88
					c13.49-11.81,31.03-17.72,52.64-17.72c22.41,0,40.46,6.48,54.15,19.43c13.69,12.95,20.26,28.62,19.73,47.01l-0.4,1.21h-39.46
					c0-10.33-3.05-19.23-9.16-26.67c-6.11-7.45-14.39-11.17-24.86-11.17c-10.47,0-18.62,2.92-24.46,8.76
					c-5.84,5.84-8.76,12.65-8.76,20.43c0,8.32,2.52,14.87,7.55,19.63c5.03,4.77,15.8,10.91,32.31,18.42
					c22.81,8.05,39.96,17.38,51.44,27.98c11.47,10.6,17.21,23.89,17.21,39.86c0,18.12-6.95,32.85-20.84,44.19
					c-13.89,11.34-32.11,17.01-54.66,17.01c-24.43,0-43.65-6.81-57.68-20.43c-14.03-13.62-20.7-29.56-20.03-47.81l0.4-1.21h38.05
					c0.54,14.09,4.53,24.26,11.98,30.5c7.45,6.24,16.74,9.36,27.88,9.36c10.87,0,19.36-2.78,25.47-8.36
					C1944.55,365.62,1947.6,358.54,1947.6,349.95z"/>
			</g>
		</g>
	</g>
	<g>
		<polygon class="st0" points="148.9,109.91 40.96,186.07 22.43,270 40.96,371.04 224.18,391.24 322.15,364.82 336.4,251.6 
			247.8,146.72 204.22,103.69 		"/>
		<g>
			<g>
				<g>
					<path class="st2" d="M149.95,242.06c-5.27-1.6-10.85,1.37-12.45,6.64c-1.6,5.27,1.37,10.85,6.64,12.45
						c5.27,1.6,10.85-1.37,12.45-6.64C158.2,249.23,155.22,243.66,149.95,242.06z"/>
					<path class="st2" d="M152.06,249.66c-0.53,1.74-2.37,2.72-4.11,2.19c-1.74-0.53-2.72-2.37-2.19-4.11
						c0.53-1.74,2.37-2.72,4.11-2.19C151.6,246.08,152.59,247.92,152.06,249.66z"/>
				</g>
				<g>
					<path class="st2" d="M217.11,242.06c-5.27-1.6-10.85,1.37-12.45,6.64c-1.6,5.27,1.37,10.85,6.64,12.45
						c5.27,1.6,10.85-1.37,12.45-6.64C225.35,249.23,222.38,243.66,217.11,242.06z"/>
					<path class="st2" d="M219.21,249.66c-0.53,1.74-2.37,2.72-4.11,2.19c-1.74-0.53-2.72-2.37-2.19-4.11
						c0.53-1.74,2.37-2.72,4.11-2.19C218.76,246.08,219.74,247.92,219.21,249.66z"/>
				</g>
				<g>
					<path class="st2" d="M103.29,279.52c2.79,2.35,5.55,4.71,8.38,6.99c1.41,1.13,2.82,2.26,4.29,3.32l2.19,1.59l1.09,0.79
						l1.13,0.74c5.96,4.02,12.27,7.48,18.82,10.33c6.56,2.83,13.35,5.08,20.3,6.66c6.94,1.57,14.02,2.5,21.12,2.74
						c7.1,0.25,14.21-0.21,21.24-1.33c0.88-0.11,1.75-0.31,2.63-0.47l2.62-0.5c0.87-0.18,1.73-0.4,2.6-0.6
						c0.87-0.21,1.74-0.4,2.6-0.62l2.57-0.72l1.29-0.36l0.64-0.18l0.64-0.21l2.54-0.83l1.27-0.41c0.43-0.14,0.84-0.31,1.26-0.46
						c13.44-4.88,26.03-12.21,37.15-21.63c-4.86,5.43-10.4,10.3-16.42,14.51c-6.03,4.21-12.54,7.77-19.36,10.63
						c-13.62,5.77-28.58,8.52-43.44,8c-7.43-0.26-14.82-1.32-22.02-3.12c-7.2-1.81-14.18-4.41-20.8-7.7
						c-6.63-3.27-12.91-7.23-18.65-11.83l-1.08-0.85l-1.04-0.9l-2.07-1.81c-1.38-1.2-2.69-2.49-3.99-3.78
						C108.2,284.91,105.73,282.22,103.29,279.52z"/>
				</g>
			</g>
		</g>
		<path class="st1" d="M268.79,80.58H43.04h0c-11.73,0-21.94,6.54-27.18,16.17c-0.24,0.44-0.47,0.88-0.68,1.33
			c-0.43,0.9-0.83,1.83-1.17,2.77c-0.87,2.37-1.45,4.87-1.72,7.47c-0.11,1.04-0.16,2.09-0.16,3.16v266.98v10.04
			c0,17.07,13.84,30.91,30.91,30.91h10.04h256.94h10.04c17.07,0,30.91-13.84,30.91-30.91v-10.04v-215.7
			C305.58,162.77,268.79,125.97,268.79,80.58z M322.15,289.63c-0.22,35.2-28.81,63.67-64.06,63.67H105.02
			c-35.25,0-63.84-28.47-64.06-63.67c0.22-34.75,28.45-62.85,63.25-62.85c0.03,0,0.05,0,0.08,0c-0.01-0.55-0.08-1.08-0.08-1.63
			c0-42.96,34.53-77.84,77.34-78.43c42.82,0.59,77.34,35.47,77.34,78.43c0,0.55-0.07,1.08-0.08,1.63c0.03,0,0.05,0,0.08,0
			C293.7,226.77,321.93,254.88,322.15,289.63z"/>
	</g>
</g>
</svg>
